<svg width="54" height="54" viewBox="0 0 54 54" fill="none" xmlns="http://www.w3.org/2000/svg">
<path d="M42.75 6.75H11.25C8.775 6.75 6.75 8.775 6.75 11.25V42.75C6.75 45.225 8.775 47.25 11.25 47.25H42.75C45.225 47.25 47.25 45.225 47.25 42.75V11.25C47.25 8.775 45.225 6.75 42.75 6.75ZM29.25 38.25H18C16.7625 38.25 15.75 37.2375 15.75 36C15.75 34.7625 16.7625 33.75 18 33.75H29.25C30.4875 33.75 31.5 34.7625 31.5 36C31.5 37.2375 30.4875 38.25 29.25 38.25ZM36 29.25H18C16.7625 29.25 15.75 28.2375 15.75 27C15.75 25.7625 16.7625 24.75 18 24.75H36C37.2375 24.75 38.25 25.7625 38.25 27C38.25 28.2375 37.2375 29.25 36 29.25ZM36 20.25H18C16.7625 20.25 15.75 19.2375 15.75 18C15.75 16.7625 16.7625 15.75 18 15.75H36C37.2375 15.75 38.25 16.7625 38.25 18C38.25 19.2375 37.2375 20.25 36 20.25Z" fill="white"/>
</svg>
