<svg width="58" height="55" viewBox="0 0 58 55" fill="none" xmlns="http://www.w3.org/2000/svg">
<ellipse cx="28.5973" cy="27.5" rx="28.5973" ry="27.5" fill="#7CDEAB"/>
<path d="M37.8193 14.0697L37.8371 14.0608H37.846L29.0319 9L20.2221 14.0608H20.2132L20.2444 14.0742L13 18.25V36.75L29.0319 46L45.0637 36.75V18.25L37.8193 14.0697ZM27.7288 42.2466L21.365 38.5733V32.3651L15.6016 29.0921V21.3141L27.7288 28.3094V42.2466ZM16.8556 19.0282L22.8459 15.5684L29.023 19.1127L35.2089 15.5595L41.2214 19.0282L29.0407 26.0547L16.8556 19.0282V19.0282ZM42.4621 29.1143L36.7343 32.3651V38.5511L30.3349 42.2422V28.3183L42.4621 21.323V29.1143Z" fill="#002E2E"/>
</svg>
