<?xml version="1.0" encoding="UTF-8" standalone="no"?>
<!DOCTYPE svg PUBLIC "-//W3C//DTD SVG 1.1//EN" "http://www.w3.org/Graphics/SVG/1.1/DTD/svg11.dtd">
<svg width="100%" height="100%" viewBox="0 0 100 100" version="1.1" xmlns="http://www.w3.org/2000/svg" xmlns:xlink="http://www.w3.org/1999/xlink" xml:space="preserve" xmlns:serif="http://www.serif.com/" style="fill-rule:evenodd;clip-rule:evenodd;stroke-linejoin:round;stroke-miterlimit:2;">
    <g>
        <g transform="matrix(0.480769,0,0,0.584795,17.7885,19.2982)">
            <path d="M171,-21.412C171,-27.812 164.689,-33 156.904,-33L-22.904,-33C-30.689,-33 -37,-27.812 -37,-21.412L-37,126.412C-37,132.812 -30.689,138 -22.904,138L156.904,138C164.689,138 171,132.812 171,126.412L171,-21.412Z" style="fill:white;"/>
        </g>
        <g transform="matrix(0.785347,0,0,0.785347,10.7387,10.7922)">
            <path d="M100,34.2C99.6,31.6 96.7,30.2 94.7,28.9C91.1,26.5 87.6,24.2 84,21.8C75.5,16.1 66.9,10.4 58.4,4.7C56.4,3.4 54.4,2 52.4,0.7C51,-0.3 49.1,-0.3 47.6,0.7C41.9,4.5 36.1,8.4 30.4,12.2L5.2,29C3,30.4 0.1,31.8 0,34.8C-0.1,38.1 0,41.5 0,44.8L0,60.8C0,63.7 -0.6,67.1 2.1,68.9C8.5,73.3 15,77.5 21.5,81.8C29.5,87.1 37.5,92.5 45.5,97.8C47.7,99.3 49.9,100.9 52.6,99.1C54.9,97.6 57.1,96.1 59.4,94.6C68.3,88.7 77.2,82.7 86.1,76.8L96,70.2C96.6,69.8 97.3,69.4 97.9,68.9C99.3,67.9 99.9,66.5 99.9,64.8L99.9,37.3C100,36.2 100.1,35.2 100,34.2C100,34.1 100,34.4 100,34.2ZM54.3,12.3L88,34.8L73,44.9L54.3,32.4L54.3,12.3ZM45.7,12.3L45.7,32.3L27.1,44.8L12,34.8L45.7,12.3ZM8.6,42.8L19.3,50L8.6,57.2L8.6,42.8ZM45.7,87.7L12,65.2L27,55.1L45.6,67.6L45.6,87.7L45.7,87.7ZM50,60.2L34.8,50L50,39.8L65.2,50L50,60.2ZM54.3,87.7L54.3,67.7L72.9,55.2L87.9,65.3L54.3,87.7ZM91.4,57.2L80.7,50L91.5,42.8L91.4,57.2Z" style="fill-rule:nonzero;"/>
        </g>
    </g>
</svg>
