<svg width="58" height="55" viewBox="0 0 58 55" fill="none" xmlns="http://www.w3.org/2000/svg">
<ellipse cx="28.5973" cy="27.5" rx="28.5973" ry="27.5" fill="#7CDEAB"/>
<path d="M29 27.9521C26.8 27.9521 25 27.2813 23.6 25.9396C22.2 24.5979 21.5 22.8729 21.5 20.7646C21.5 18.6563 22.2 16.9313 23.6 15.5896C25 14.2479 26.8 13.5771 29 13.5771C31.2 13.5771 33 14.2479 34.4 15.5896C35.8 16.9313 36.5 18.6563 36.5 20.7646C36.5 22.8729 35.8 24.5979 34.4 25.9396C33 27.2813 31.2 27.9521 29 27.9521V27.9521ZM13 43.3333V38.8292C13 37.6153 13.3167 36.5771 13.95 35.7146C14.5833 34.8521 15.4 34.1972 16.4 33.75C18.6333 32.7917 20.775 32.0729 22.825 31.5938C24.875 31.1146 26.9333 30.875 29 30.875C31.0667 30.875 33.1167 31.1226 35.15 31.6177C37.1833 32.1129 39.3167 32.8236 41.55 33.75C42.5833 34.1972 43.4167 34.8521 44.05 35.7146C44.6833 36.5771 45 37.6153 45 38.8292V43.3333H13ZM16 40.4583H42V38.8292C42 38.3181 41.8417 37.8309 41.525 37.3677C41.2083 36.9045 40.8167 36.5611 40.35 36.3375C38.2167 35.3472 36.2667 34.6684 34.5 34.301C32.7333 33.9337 30.9 33.75 29 33.75C27.1 33.75 25.25 33.9337 23.45 34.301C21.65 34.6684 19.7 35.3472 17.6 36.3375C17.1333 36.5611 16.75 36.9045 16.45 37.3677C16.15 37.8309 16 38.3181 16 38.8292V40.4583ZM29 25.0771C30.3 25.0771 31.375 24.6698 32.225 23.8552C33.075 23.0406 33.5 22.0104 33.5 20.7646C33.5 19.5188 33.075 18.4885 32.225 17.674C31.375 16.8594 30.3 16.4521 29 16.4521C27.7 16.4521 26.625 16.8594 25.775 17.674C24.925 18.4885 24.5 19.5188 24.5 20.7646C24.5 22.0104 24.925 23.0406 25.775 23.8552C26.625 24.6698 27.7 25.0771 29 25.0771Z" fill="#002E2E"/>
</svg>
