<svg width="80" height="80" viewBox="0 0 80 80" fill="none" xmlns="http://www.w3.org/2000/svg">
<path d="M79.3006 74.9461L67.6667 63.3838V18.9027L62.1723 8.79773C61.767 8.02731 61.1589 7.38227 60.4136 6.93228C59.6684 6.48229 58.8145 6.24444 57.9439 6.24444C57.0734 6.24444 56.2194 6.48229 55.4742 6.93228C54.729 7.38227 54.1209 8.02731 53.7156 8.79773L48.5556 18.9266V44.3683L4.86281 0.890509C4.52868 0.553606 4.10178 0.323841 3.63655 0.230508C3.17132 0.137175 2.68883 0.184502 2.25061 0.366456C1.81238 0.54841 1.43826 0.856747 1.17596 1.25215C0.913659 1.64756 0.775052 2.11213 0.777811 2.58662V21.8888H5.9617V25.7111H0.777811V41H5.9617V44.8222H0.777811V60.7083H5.9617V64.5305H0.777811V76.6422C0.777811 77.2757 1.0295 77.8834 1.4775 78.3314C1.9255 78.7794 2.53313 79.0311 3.1667 79.0311H77.6045C78.079 79.0338 78.5435 78.8952 78.9389 78.6329C79.3344 78.3706 79.6427 77.9965 79.8246 77.5583C80.0066 77.12 80.0539 76.6376 79.9606 76.1723C79.8673 75.7071 79.6375 75.2802 79.3006 74.9461ZM19.8889 60.1111V38.4677L41.5561 60.1111H19.8889ZM62.8889 65.1516H53.3334V59.3466H62.8889V65.1516ZM62.8889 55.5961H53.3334V20.0972L57.9678 11.0911L62.8889 20.1211V55.5961Z" fill="white"/>
</svg>
