<svg width="68" height="68" viewBox="0 0 68 68" fill="none" xmlns="http://www.w3.org/2000/svg">
<path d="M64.5652 0.654785H3.03795C1.55829 0.654785 0.362854 1.85022 0.362854 3.32988V64.8571C0.362854 66.3368 1.55829 67.5322 3.03795 67.5322H64.5652C66.0449 67.5322 67.2403 66.3368 67.2403 64.8571V3.32988C67.2403 1.85022 66.0449 0.654785 64.5652 0.654785ZM33.8935 34.6034L17.8429 48.0625C17.4082 48.4304 16.7478 48.121 16.7478 47.5526V42.3111C16.7478 42.1188 16.8398 41.9265 16.9903 41.8011L26.1692 34.0935L16.9903 26.3859C16.9134 26.3252 16.8516 26.2476 16.8095 26.1592C16.7675 26.0708 16.7464 25.9738 16.7478 25.8759V20.6344C16.7478 20.066 17.4082 19.7567 17.8429 20.1245L33.8935 33.5752C34.2196 33.8427 34.2196 34.3359 33.8935 34.6034ZM50.8553 47.5526C50.8553 47.9204 50.5711 48.2214 50.2283 48.2214H34.7629C34.4202 48.2214 34.136 47.9204 34.136 47.5526V43.5399C34.136 43.1721 34.4202 42.8712 34.7629 42.8712H50.2283C50.5711 42.8712 50.8553 43.1721 50.8553 43.5399V47.5526Z" fill="white"/>
</svg>
