<svg width="26" height="26" viewBox="0 0 26 26" fill="none" xmlns="http://www.w3.org/2000/svg">
<g clip-path="url(#clip0_1501_329)">
<path d="M22.3889 22.3889H3.61114C3.41959 22.3889 3.23589 22.465 3.10045 22.6004C2.96501 22.7359 2.88892 22.9196 2.88892 23.1111C2.88892 23.3027 2.96501 23.4864 3.10045 23.6218C3.23589 23.7572 3.41959 23.8333 3.61114 23.8333H22.3889C22.5805 23.8333 22.7642 23.7572 22.8996 23.6218C23.035 23.4864 23.1111 23.3027 23.1111 23.1111C23.1111 22.9196 23.035 22.7359 22.8996 22.6004C22.7642 22.465 22.5805 22.3889 22.3889 22.3889Z" fill="white"/>
<path d="M13 21.2911L20.6628 13.6283C20.7811 13.4902 20.843 13.3124 20.8359 13.1307C20.8289 12.9489 20.7536 12.7765 20.625 12.6479C20.4963 12.5192 20.3239 12.4439 20.1421 12.4369C19.9604 12.4299 19.7827 12.4917 19.6445 12.61L13.7223 18.525V3.61111C13.7223 3.41956 13.6462 3.23586 13.5107 3.10042C13.3753 2.96498 13.1916 2.88889 13 2.88889C12.8085 2.88889 12.6248 2.96498 12.4894 3.10042C12.3539 3.23586 12.2778 3.41956 12.2778 3.61111V18.525L6.36282 12.61C6.29808 12.5344 6.2184 12.473 6.1288 12.4296C6.0392 12.3863 5.9416 12.3619 5.84214 12.3581C5.74268 12.3542 5.64349 12.371 5.55081 12.4073C5.45813 12.4436 5.37396 12.4987 5.30358 12.5691C5.23319 12.6395 5.17812 12.7236 5.14181 12.8163C5.1055 12.909 5.08874 13.0082 5.09258 13.1076C5.09642 13.2071 5.12078 13.3047 5.16413 13.3943C5.20748 13.4839 5.26889 13.5636 5.34449 13.6283L13 21.2911Z" fill="white"/>
</g>
<defs>
<clipPath id="clip0_1501_329">
<rect width="26" height="26" fill="white"/>
</clipPath>
</defs>
</svg>
