<svg width="44" height="44" viewBox="0 0 44 44" fill="none" xmlns="http://www.w3.org/2000/svg">
<path d="M30.0094 12.979C28.5553 11.6853 26.8093 10.7633 24.9209 10.292C23.0325 9.82079 21.058 9.81433 19.1665 10.2732C19.5004 10.7201 21.6955 13.7058 23.6746 17.3446C27.9714 15.7339 29.7884 13.2884 30.0094 12.979V12.979ZM24.0625 24.0036C17.2513 26.3754 14.8009 31.1045 14.5848 31.5464C16.6326 33.1424 19.2058 34.0951 22 34.0951C23.6746 34.0951 25.2705 33.7562 26.7192 33.1375C26.5375 32.0768 25.8402 28.3839 24.1411 23.9741L24.0625 24.0036ZM26.4049 23.4192C27.9862 27.7603 28.6295 31.296 28.7522 32.0326C31.4629 30.2009 33.3929 27.2987 33.9281 23.9348C33.5156 23.8071 30.1911 22.8152 26.4049 23.4192ZM22 0C9.85089 0 0 9.85089 0 22C0 34.1491 9.85089 44 22 44C34.1491 44 44 34.1491 44 22C44 9.85089 34.1491 0 22 0ZM22 36.1429C14.2018 36.1429 7.85714 29.7982 7.85714 22C7.85714 14.2018 14.2018 7.85714 22 7.85714C29.7982 7.85714 36.1429 14.2018 36.1429 22C36.1429 29.7982 29.7982 36.1429 22 36.1429ZM24.6076 19.142C24.8875 19.7165 25.1576 20.3009 25.408 20.8902C25.4964 21.0964 25.5848 21.3027 25.6683 21.5138C29.6853 21.008 33.6826 21.8183 34.0804 21.9018C34.0558 19.0487 33.0344 16.4313 31.3549 14.3737C31.0946 14.7223 29.0714 17.3201 24.6076 19.142V19.142ZM21.342 18.0714C19.3384 14.5112 17.1826 11.5205 16.8634 11.0835C13.4848 12.6795 10.9558 15.7929 10.175 19.5397C10.7152 19.5496 15.6946 19.5741 21.342 18.0714ZM22.8446 22.1228C23.0018 22.0737 23.1589 22.0246 23.321 21.9804C23.0165 21.2929 22.6875 20.6054 22.3437 19.9326C16.3134 21.7397 10.4549 21.6612 9.92946 21.6513C9.92455 21.7741 9.92455 21.8969 9.92455 22.0196C9.92455 25.1232 11.0982 27.9567 13.0281 30.0978C13.2982 29.6263 16.6129 24.1362 22.8446 22.1228V22.1228Z" fill="white"/>
</svg>
