<svg width="44" height="44" viewBox="0 0 44 44" fill="none" xmlns="http://www.w3.org/2000/svg">
<circle cx="22" cy="22" r="22" fill="#002E2E"/>
<path fill-rule="evenodd" clip-rule="evenodd" d="M21.934 0C16.117 0.00072918 10.5384 2.31186 6.42513 6.42513C2.31186 10.5384 0.00072918 16.117 0 21.934C0 31.6195 6.325 39.8283 14.9353 42.79C16.0133 42.9248 16.4147 42.251 16.4147 41.712V37.9445C10.362 39.292 9.01725 34.9855 9.01725 34.9855C8.074 32.428 6.5945 31.7542 6.5945 31.7542C4.576 30.4095 6.7265 30.4095 6.7265 30.4095C8.87975 30.5442 10.0925 32.6975 10.0925 32.6975C12.111 36.0608 15.2047 35.1175 16.4175 34.5812C16.5495 33.1017 17.2233 32.1612 17.7623 31.6222C12.9168 31.0832 7.8045 29.1995 7.8045 20.7212C7.8045 18.3012 8.61025 16.4147 10.0925 14.8005C9.955 14.3962 9.14925 12.111 10.362 9.14925C10.362 9.14925 12.2457 8.61025 16.4147 11.4372C18.1637 10.8982 20.0502 10.7635 21.934 10.7635C23.8177 10.7635 25.7015 11.033 27.4505 11.4372C31.6223 8.613 33.506 9.14925 33.506 9.14925C34.716 12.111 33.9075 14.3963 33.7728 14.9353C35.2547 16.5497 36.0719 18.6645 36.0607 20.856C36.0607 29.3343 30.9458 31.0832 26.1058 31.6222C26.9115 32.2932 27.5853 33.638 27.5853 35.6565V41.712C27.5853 42.251 27.9868 42.922 29.0648 42.79C33.4263 41.3181 37.2149 38.5125 39.895 34.77C42.575 31.0274 44.0111 26.5372 44 21.934C43.8653 9.823 34.045 0 21.934 0Z" fill="#6BEFAA"/>
</svg>
