<svg width="64" height="64" viewBox="0 0 64 64" fill="none" xmlns="http://www.w3.org/2000/svg">
<g clip-path="url(#clip0_124_41)">
<path d="M8.88671 39.7793C7.12057 37.8449 6.42336 36.5319 6.01558 35.6025C5.47464 34.3718 5.25364 33.3297 5.25272 32.0009C5.25179 30.6722 5.47186 29.6291 6.01465 28.4002C6.42243 27.4709 7.11964 26.1579 8.88578 24.2234C10.7934 22.1309 11.375 21.5123 16.4423 16.445C21.5095 11.3778 22.129 10.7989 24.2207 8.8867C26.1551 7.12056 27.4681 6.42705 28.3974 6.01557C29.6282 5.47463 30.6712 5.25456 32 5.25179C33.3278 5.25179 34.3718 5.47094 35.6016 6.01465C36.5309 6.42243 37.844 7.11964 39.7784 8.88578C41.871 10.7952 42.4905 11.3778 47.5559 16.4432C52.6231 21.5104 53.202 22.13 55.1142 24.2216C56.8804 26.156 57.5739 27.4691 57.9853 28.3984C58.5281 29.6273 58.7473 30.6712 58.7482 32C58.7491 33.3288 58.5263 34.3709 57.9853 35.6016C57.5776 36.5309 56.8804 37.844 55.1142 39.7784C53.2038 41.8719 52.6231 42.4896 47.5559 47.5568C42.4905 52.6222 41.871 53.2048 39.7775 55.1151C37.8431 56.8813 36.5282 57.5766 35.6007 57.9863C34.37 58.5272 33.3278 58.7482 32 58.7482C30.6722 58.7482 29.6291 58.5263 28.3984 57.9853C27.4691 57.5776 26.156 56.8804 24.2216 55.1142C22.13 53.2057 21.5104 52.6231 16.4432 47.5559C11.3778 42.4905 10.7943 41.8719 8.88671 39.7793" fill="url(#paint0_radial_124_41)"/>
<path d="M8.88671 39.7793C7.12057 37.8449 6.42336 36.5319 6.01558 35.6025C5.47464 34.3718 5.25364 33.3297 5.25272 32.0009C5.25179 30.6722 5.47186 29.6291 6.01465 28.4002C6.42243 27.4709 7.11964 26.1579 8.88578 24.2234C10.7934 22.1309 11.375 21.5123 16.4423 16.445C21.5095 11.3778 22.129 10.7989 24.2207 8.8867C26.1551 7.12056 27.4681 6.42705 28.3974 6.01557C29.6282 5.47463 30.6712 5.25456 32 5.25179C33.3278 5.25179 34.3718 5.47094 35.6016 6.01465C36.5309 6.42243 37.844 7.11964 39.7784 8.88578C41.871 10.7952 42.4905 11.3778 47.5559 16.4432C52.6231 21.5104 53.202 22.13 55.1142 24.2216C56.8804 26.156 57.5739 27.4691 57.9853 28.3984C58.5281 29.6273 58.7473 30.6712 58.7482 32C58.7491 33.3288 58.5263 34.3709 57.9853 35.6016C57.5776 36.5309 56.8804 37.844 55.1142 39.7784C53.2038 41.8719 52.6231 42.4896 47.5559 47.5568C42.4905 52.6222 41.871 53.2048 39.7775 55.1151C37.8431 56.8813 36.5282 57.5766 35.6007 57.9863C34.37 58.5272 33.3278 58.7482 32 58.7482C30.6722 58.7482 29.6291 58.5263 28.3984 57.9853C27.4691 57.5776 26.156 56.8804 24.2216 55.1142C22.13 53.2057 21.5104 52.6231 16.4432 47.5559C11.3778 42.4905 10.7943 41.8719 8.88671 39.7793" fill="#6BEFAA"/>
<circle cx="32.5" cy="32.5" r="9.5" fill="#002E2E"/>
</g>
<defs>
<radialGradient id="paint0_radial_124_41" cx="0" cy="0" r="1" gradientUnits="userSpaceOnUse" gradientTransform="translate(3.58247 33.332) rotate(45) scale(55.8637)">
<stop offset="0.09" stop-color="#FA8F21"/>
<stop offset="0.78" stop-color="#D82D7E"/>
</radialGradient>
<clipPath id="clip0_124_41">
<rect width="44" height="44" fill="white" transform="translate(32 0.887299) rotate(45)"/>
</clipPath>
</defs>
</svg>
