<?xml version="1.0" encoding="UTF-8" standalone="no"?>
<!DOCTYPE svg PUBLIC "-//W3C//DTD SVG 1.1//EN" "http://www.w3.org/Graphics/SVG/1.1/DTD/svg11.dtd">
<svg width="100%" height="100%" viewBox="0 0 44 44" version="1.1" xmlns="http://www.w3.org/2000/svg" xmlns:xlink="http://www.w3.org/1999/xlink" xml:space="preserve" xmlns:serif="http://www.serif.com/" style="fill-rule:evenodd;clip-rule:evenodd;stroke-linejoin:round;stroke-miterlimit:2;">
    <g>
        <path d="M11.157,43.844C8.541,43.725 7.119,43.29 6.174,42.921C4.921,42.433 4.028,41.853 3.087,40.914C2.147,39.975 1.565,39.082 1.08,37.829C0.711,36.884 0.276,35.462 0.157,32.845C0.026,30.017 0,29.168 0,22.002C0,14.836 0.029,13.988 0.156,11.157C0.275,8.541 0.713,7.122 1.079,6.174C1.567,4.921 2.149,4.028 3.086,3.086C4.025,2.147 4.918,1.564 6.172,1.079C7.118,0.71 8.539,0.275 11.156,0.156C13.986,0.026 14.836,0 21.999,0C29.166,0 30.013,0.029 32.844,0.156C35.461,0.275 36.88,0.713 37.828,1.079C39.081,1.564 39.974,2.147 40.914,3.086C41.854,4.025 42.433,4.92 42.921,6.172C43.29,7.118 43.725,8.539 43.844,11.156C43.974,13.987 44,14.835 44,22.001C44,29.164 43.974,30.014 43.844,32.845C43.725,35.462 43.287,36.884 42.921,37.829C42.433,39.082 41.853,39.975 40.914,40.914C39.975,41.853 39.081,42.433 37.828,42.921C36.882,43.29 35.461,43.725 32.844,43.844C30.016,43.974 29.166,44 21.999,44C14.836,44 13.986,43.975 11.157,43.844Z" style="fill:rgb(107,239,170);fill-rule:nonzero;"/>
        <path d="M16.598,22.094C16.598,19.085 19.037,16.645 22.046,16.645C25.055,16.645 27.495,19.085 27.495,22.094C27.495,25.103 25.055,27.543 22.046,27.543C19.037,27.543 16.598,25.103 16.598,22.094ZM13.652,22.094C13.652,26.73 17.41,30.487 22.046,30.487C26.682,30.487 30.439,26.73 30.439,22.094C30.439,17.458 26.682,13.7 22.046,13.7C17.41,13.7 13.652,17.458 13.652,22.094L13.652,22.094ZM28.81,13.367C28.81,13.755 28.925,14.135 29.14,14.457C29.356,14.78 29.662,15.032 30.02,15.18C30.379,15.329 30.773,15.368 31.154,15.292C31.534,15.217 31.884,15.03 32.158,14.756C32.433,14.482 32.62,14.132 32.695,13.752C32.771,13.371 32.733,12.977 32.584,12.618C32.436,12.26 32.185,11.953 31.862,11.738C31.54,11.522 31.161,11.407 30.773,11.407L30.772,11.407C30.252,11.407 29.753,11.614 29.385,11.981C29.017,12.349 28.811,12.847 28.81,13.367ZM15.442,35.399C13.848,35.327 12.982,35.061 12.406,34.837C11.643,34.54 11.099,34.186 10.526,33.614C9.954,33.043 9.599,32.499 9.303,31.735C9.079,31.16 8.814,30.294 8.741,28.7C8.662,26.977 8.646,26.459 8.646,22.094C8.646,17.729 8.663,17.213 8.741,15.488C8.814,13.895 9.081,13.03 9.303,12.453C9.601,11.69 9.954,11.145 10.526,10.572C11.098,10 11.642,9.646 12.406,9.35C12.982,9.125 13.848,8.86 15.442,8.787C17.165,8.708 17.683,8.692 22.046,8.692C26.409,8.692 26.927,8.709 28.652,8.788C30.245,8.86 31.11,9.128 31.687,9.35C32.45,9.646 32.995,10.001 33.567,10.573C34.14,11.144 34.493,11.69 34.79,12.453C35.014,13.028 35.28,13.895 35.352,15.489C35.432,17.213 35.447,17.729 35.447,22.094C35.447,26.459 35.432,26.976 35.352,28.7C35.28,30.294 35.013,31.16 34.79,31.736C34.493,32.499 34.139,33.043 33.567,33.615C32.996,34.186 32.45,34.54 31.687,34.837C31.112,35.062 30.245,35.327 28.652,35.4C26.929,35.479 26.411,35.495 22.046,35.495C17.681,35.495 17.164,35.479 15.442,35.4L15.442,35.399ZM15.307,5.847C13.566,5.926 12.377,6.202 11.339,6.606C10.264,7.023 9.353,7.583 8.443,8.491C7.534,9.4 6.975,10.311 6.558,11.387C6.154,12.426 5.878,13.614 5.799,15.355C5.718,17.097 5.7,17.655 5.7,22.094C5.7,26.533 5.718,27.09 5.799,28.833C5.878,30.573 6.154,31.762 6.558,32.801C6.975,33.875 7.534,34.788 8.443,35.696C9.353,36.604 10.263,37.163 11.339,37.582C12.379,37.986 13.566,38.262 15.307,38.341C17.05,38.42 17.607,38.44 22.046,38.44C26.485,38.44 27.042,38.422 28.785,38.341C30.525,38.262 31.714,37.986 32.753,37.582C33.827,37.163 34.739,36.605 35.648,35.696C36.558,34.788 37.115,33.875 37.534,32.801C37.938,31.762 38.215,30.573 38.293,28.833C38.372,27.089 38.391,26.533 38.391,22.094C38.391,17.655 38.372,17.097 38.293,15.355C38.214,13.614 37.938,12.425 37.534,11.387C37.115,10.312 36.557,9.401 35.648,8.491C34.74,7.581 33.827,7.023 32.754,6.606C31.714,6.202 30.525,5.925 28.786,5.847C27.043,5.767 26.486,5.748 22.048,5.748C17.609,5.748 17.051,5.766 15.307,5.847" style="fill:rgb(0,46,46);fill-rule:nonzero;"/>
    </g>
</svg>
