<svg width="44" height="44" viewBox="0 0 44 44" fill="none" xmlns="http://www.w3.org/2000/svg">
<g clip-path="url(#clip0_124_34)">
<rect width="44" height="44" fill="#255757"/>
<path d="M11.1573 43.8444C8.54055 43.7254 7.11909 43.2899 6.17363 42.9212C4.92086 42.4334 4.0277 41.8528 3.08747 40.9138C2.14723 39.9749 1.56531 39.0818 1.08016 37.829C0.711386 36.8835 0.275924 35.4621 0.156923 32.8454C0.0261539 30.0168 0 29.1681 0 22.002C0 14.8358 0.0287693 13.9884 0.155616 11.1573C0.274616 8.54055 0.712694 7.12171 1.07885 6.17363C1.56662 4.92086 2.14854 4.0277 3.08616 3.08616C4.02508 2.14723 4.91824 1.564 6.17232 1.07885C7.11778 0.710078 8.53925 0.274616 11.1559 0.155616C13.9858 0.0261539 14.8358 0 21.9993 0C29.1655 0 30.0129 0.0287693 32.8441 0.155616C35.4608 0.274616 36.8796 0.712694 37.8277 1.07885C39.0805 1.564 39.9736 2.14723 40.9138 3.08616C41.8541 4.02508 42.4334 4.91955 42.9212 6.17232C43.2899 7.11778 43.7254 8.53925 43.8444 11.1559C43.9738 13.9871 44 14.8345 44 22.0007C44 29.1642 43.9738 30.0142 43.8444 32.8454C43.7254 35.4621 43.2873 36.8835 42.9212 37.829C42.4334 39.0818 41.8528 39.9749 40.9138 40.9138C39.9749 41.8528 39.0805 42.4334 37.8277 42.9212C36.8822 43.2899 35.4608 43.7254 32.8441 43.8444C30.0155 43.9738 29.1655 44 21.9993 44C14.8358 44 13.9858 43.9752 11.1573 43.8444Z" fill="url(#paint0_radial_124_34)"/>
<path d="M11.1573 43.8444C8.54055 43.7254 7.11909 43.2899 6.17363 42.9212C4.92086 42.4334 4.0277 41.8528 3.08747 40.9138C2.14723 39.9749 1.56531 39.0818 1.08016 37.829C0.711386 36.8835 0.275924 35.4621 0.156923 32.8454C0.0261539 30.0168 0 29.1681 0 22.002C0 14.8358 0.0287693 13.9884 0.155616 11.1573C0.274616 8.54055 0.712694 7.12171 1.07885 6.17363C1.56662 4.92086 2.14854 4.0277 3.08616 3.08616C4.02508 2.14723 4.91824 1.564 6.17232 1.07885C7.11778 0.710078 8.53925 0.274616 11.1559 0.155616C13.9858 0.0261539 14.8358 0 21.9993 0C29.1655 0 30.0129 0.0287693 32.8441 0.155616C35.4608 0.274616 36.8796 0.712694 37.8277 1.07885C39.0805 1.564 39.9736 2.14723 40.9138 3.08616C41.8541 4.02508 42.4334 4.91955 42.9212 6.17232C43.2899 7.11778 43.7254 8.53925 43.8444 11.1559C43.9738 13.9871 44 14.8345 44 22.0007C44 29.1642 43.9738 30.0142 43.8444 32.8454C43.7254 35.4621 43.2873 36.8835 42.9212 37.829C42.4334 39.0818 41.8528 39.9749 40.9138 40.9138C39.9749 41.8528 39.0805 42.4334 37.8277 42.9212C36.8822 43.2899 35.4608 43.7254 32.8441 43.8444C30.0155 43.9738 29.1655 44 21.9993 44C14.8358 44 13.9858 43.9752 11.1573 43.8444Z" fill="#6BEFAA"/>
<path d="M16.5979 22.0938C16.5979 19.0846 19.0366 16.6446 22.0458 16.6446C25.0549 16.6446 27.4949 19.0846 27.4949 22.0938C27.4949 25.1029 25.0549 27.5429 22.0458 27.5429C19.0366 27.5429 16.5979 25.1029 16.5979 22.0938ZM13.6522 22.0938C13.6522 26.7295 17.41 30.4873 22.0458 30.4873C26.6815 30.4873 30.4393 26.7295 30.4393 22.0938C30.4393 17.458 26.6815 13.7002 22.0458 13.7002C17.41 13.7002 13.6523 17.4577 13.6523 22.0938H13.6522ZM28.8102 13.3674C28.8101 13.7553 28.9249 14.1346 29.1404 14.4573C29.3558 14.7799 29.662 15.0315 30.0204 15.1801C30.3787 15.3287 30.7731 15.3677 31.1537 15.2922C31.5342 15.2166 31.8838 15.03 32.1582 14.7557C32.4327 14.4815 32.6196 14.1321 32.6954 13.7516C32.7713 13.3711 32.7326 12.9767 32.5843 12.6182C32.436 12.2598 32.1847 11.9533 31.8622 11.7376C31.5397 11.522 31.1605 11.4068 30.7725 11.4066H30.7718C30.2517 11.4069 29.7531 11.6135 29.3853 11.9811C29.0175 12.3488 28.8107 12.8474 28.8102 13.3674ZM15.4419 35.3993C13.8482 35.3267 12.982 35.0612 12.4064 34.837C11.6432 34.5399 11.0987 34.186 10.5262 33.6143C9.95365 33.0426 9.59926 32.4986 9.30346 31.7354C9.07906 31.16 8.8136 30.2935 8.74115 28.6998C8.66191 26.9768 8.64608 26.4592 8.64608 22.094C8.64608 17.7288 8.66321 17.2127 8.74115 15.4882C8.81373 13.8945 9.08115 13.0297 9.30346 12.4526C9.60057 11.6895 9.95443 11.145 10.5262 10.5724C11.0979 9.99993 11.6419 9.64555 12.4064 9.34975C12.9817 9.12535 13.8482 8.85989 15.4419 8.78744C17.1649 8.70819 17.6825 8.69237 22.0458 8.69237C26.409 8.69237 26.9271 8.70924 28.6516 8.7877C30.2453 8.86028 31.1101 9.1277 31.6871 9.35001C32.4503 9.64581 32.9948 10.001 33.5673 10.5727C34.1398 11.1444 34.4929 11.6897 34.79 12.4529C35.0144 13.0283 35.2799 13.8948 35.3523 15.4885C35.4316 17.2129 35.4474 17.7291 35.4474 22.0943C35.4474 26.4595 35.4316 26.9756 35.3523 28.7001C35.2798 30.2938 35.013 31.16 34.79 31.7356C34.4929 32.4988 34.1391 33.0433 33.5673 33.6145C32.9956 34.1857 32.4503 34.5401 31.6871 34.8372C31.1118 35.0616 30.2453 35.3271 28.6516 35.3995C26.9286 35.4788 26.411 35.4946 22.0458 35.4946C17.6806 35.4946 17.1644 35.4788 15.4419 35.3995V35.3993ZM15.3066 5.84657C13.5664 5.92581 12.3773 6.20174 11.3389 6.60581C10.2641 7.0231 9.35302 7.58292 8.44326 8.49125C7.5335 9.39957 6.97511 10.3108 6.55783 11.3869C6.15375 12.426 5.87782 13.6144 5.79858 15.3546C5.71802 17.0974 5.69958 17.6547 5.69958 22.0938C5.69958 26.5329 5.71802 27.0901 5.79858 28.833C5.87782 30.5732 6.15375 31.7615 6.55783 32.8006C6.97511 33.8754 7.53363 34.7883 8.44326 35.6963C9.35289 36.6042 10.2628 37.1632 11.3389 37.5817C12.3793 37.9858 13.5664 38.2617 15.3066 38.3409C17.0504 38.4202 17.6067 38.4399 22.0458 38.4399C26.4849 38.4399 27.0421 38.4215 28.785 38.3409C30.5253 38.2617 31.7136 37.9858 32.7526 37.5817C33.8274 37.1632 34.7385 36.6046 35.6483 35.6963C36.558 34.7879 37.1152 33.8754 37.5337 32.8006C37.9378 31.7615 38.215 30.5731 38.293 28.833C38.3722 27.0888 38.3906 26.5329 38.3906 22.0938C38.3906 17.6547 38.3722 17.0974 38.293 15.3546C38.2137 13.6143 37.9378 12.4253 37.5337 11.3869C37.1152 10.3121 36.5566 9.40101 35.6483 8.49125C34.74 7.58148 33.8274 7.0231 32.754 6.60581C31.7136 6.20174 30.5251 5.92451 28.7863 5.84657C27.0431 5.76693 26.4862 5.74757 22.0477 5.74757C17.6093 5.74757 17.051 5.76601 15.3072 5.84657" fill="#002E2E"/>
<rect x="5" y="6" width="35" height="32" fill="#002E2E"/>
<path d="M40.7519 0H3.24806C2.38662 0 1.56046 0.342205 0.951334 0.951334C0.342205 1.56046 0 2.38662 0 3.24806V40.7519C0 41.6134 0.342205 42.4395 0.951334 43.0487C1.56046 43.6578 2.38662 44 3.24806 44H40.7519C41.6134 44 42.4395 43.6578 43.0487 43.0487C43.6578 42.4395 44 41.6134 44 40.7519V3.24806C44 2.38662 43.6578 1.56046 43.0487 0.951334C42.4395 0.342205 41.6134 0 40.7519 0ZM13.1144 37.4825H6.49917V16.4694H13.1144V37.4825ZM9.80222 13.5575C9.05183 13.5533 8.31951 13.3269 7.69768 12.9068C7.07585 12.4868 6.59237 11.892 6.30828 11.1974C6.02418 10.5029 5.95219 9.73975 6.10139 9.00433C6.25059 8.26892 6.6143 7.59417 7.14662 7.06527C7.67893 6.53636 8.35599 6.17699 9.09236 6.03251C9.82872 5.88803 10.5914 5.96492 11.2841 6.25347C11.9768 6.54203 12.5685 7.02931 12.9845 7.65382C13.4005 8.27834 13.6223 9.0121 13.6217 9.7625C13.6287 10.2649 13.5346 10.7636 13.3449 11.2288C13.1551 11.694 12.8736 12.1163 12.5172 12.4705C12.1608 12.8246 11.7367 13.1034 11.2703 13.2901C10.8038 13.4769 10.3046 13.5678 9.80222 13.5575ZM37.4978 37.5008H30.8856V26.0211C30.8856 22.6356 29.4464 21.5906 27.5886 21.5906C25.6269 21.5906 23.7019 23.0694 23.7019 26.1067V37.5008H17.0867V16.4847H23.4483V19.3967H23.5339C24.1725 18.1042 26.4092 15.895 29.8222 15.895C33.5133 15.895 37.5008 18.0858 37.5008 24.5025L37.4978 37.5008Z" fill="#6BEFAA"/>
</g>
<defs>
<radialGradient id="paint0_radial_124_34" cx="0" cy="0" r="1" gradientUnits="userSpaceOnUse" gradientTransform="translate(2.84764 43.0361) scale(55.8637)">
<stop offset="0.09" stop-color="#FA8F21"/>
<stop offset="0.78" stop-color="#D82D7E"/>
</radialGradient>
<clipPath id="clip0_124_34">
<rect width="44" height="44" fill="white"/>
</clipPath>
</defs>
</svg>
