<svg width="28" height="28" viewBox="0 0 28 28" fill="none" xmlns="http://www.w3.org/2000/svg">
<path d="M4.29167 23.1541C3.84543 23.1541 3.45498 22.9868 3.1203 22.6521C2.78562 22.3174 2.61829 21.927 2.61829 21.4807V6.97807C2.61829 6.53184 2.78562 6.14138 3.1203 5.8067C3.45498 5.47203 3.84543 5.30469 4.29167 5.30469H23.2567C23.7029 5.30469 24.0934 5.47203 24.4281 5.8067C24.7627 6.14138 24.9301 6.53184 24.9301 6.97807V21.4807C24.9301 21.927 24.7627 22.3174 24.4281 22.6521C24.0934 22.9868 23.7029 23.1541 23.2567 23.1541H4.29167ZM13.7742 14.7314L4.29167 8.51201V21.4807H23.2567V8.51201L13.7742 14.7314ZM13.7742 13.058L23.1451 6.97807H4.43112L13.7742 13.058ZM4.29167 8.51201V6.97807V21.4807V8.51201Z" fill="#7CDEAB"/>
</svg>
