<svg width="585" height="578" viewBox="0 0 585 578" fill="none" xmlns="http://www.w3.org/2000/svg">
<circle cx="397.928" cy="469.364" r="88.7653" stroke="#255757" stroke-width="37.7725"/>
<rect x="47.6326" y="1.56316" width="180.364" height="180.364" rx="8.97096" transform="rotate(15 47.6326 1.56316)" fill="#255757" stroke="#255757" stroke-width="0.944312"/>
<g filter="url(#filter0_d_160_8)">
<path d="M529.516 44.9038C536.537 43.0223 542.963 49.4476 541.081 56.4692L524.388 118.769C522.506 125.791 513.729 128.143 508.589 123.002L462.983 77.3957C457.842 72.2555 460.194 63.4784 467.216 61.597L529.516 44.9038Z" fill="#255757"/>
<path d="M530.004 46.7281C535.622 45.2229 540.762 50.3631 539.257 55.9804L522.564 118.28C521.058 123.898 514.037 125.779 509.925 121.667L464.318 76.0602C460.206 71.948 462.087 64.9264 467.705 63.4213L530.004 46.7281Z" stroke="#6BEFAA" stroke-width="3.77725"/>
</g>
<g filter="url(#filter1_d_160_8)">
<path d="M38.8865 388.481C39.8031 387.778 40.8079 387.197 41.8753 386.755L42.4061 386.536C43.4734 386.093 44.5942 385.793 45.7397 385.642L46.3092 385.567C47.4547 385.416 48.615 385.416 49.7604 385.567L50.33 385.642C51.4755 385.793 52.5962 386.093 53.6636 386.536L54.1943 386.755C55.2617 387.197 56.2666 387.778 57.1832 388.481L57.6389 388.831C58.5555 389.534 59.376 390.354 60.0793 391.271L60.429 391.727C61.1324 392.643 61.7125 393.648 62.1546 394.716L62.3745 395.246C62.8166 396.314 63.1169 397.435 63.2677 398.58L63.3427 399.15C63.4935 400.295 63.4935 401.455 63.3427 402.601L63.2677 403.17C63.1169 404.316 62.8166 405.437 62.3745 406.504L62.1546 407.035C61.7125 408.102 61.1324 409.107 60.429 410.024L60.0793 410.479C59.376 411.396 58.5555 412.216 57.6389 412.92L57.1832 413.269C56.2666 413.973 55.2617 414.553 54.1943 414.995L53.6636 415.215C52.5962 415.657 51.4755 415.957 50.33 416.108L49.7604 416.183C48.615 416.334 47.4547 416.334 46.3092 416.183L45.7397 416.108C44.5942 415.957 43.4734 415.657 42.406 415.215L41.8753 414.995C40.8079 414.553 39.8031 413.973 38.8865 413.269L38.4307 412.92C37.5141 412.216 36.6937 411.396 35.9903 410.479L35.6406 410.024C34.9373 409.107 34.3571 408.102 33.915 407.035L33.6952 406.504C33.253 405.437 32.9527 404.316 32.8019 403.17L32.7269 402.601C32.5761 401.455 32.5761 400.295 32.7269 399.15L32.8019 398.58C32.9527 397.435 33.253 396.314 33.6952 395.246L33.915 394.716C34.3571 393.648 34.9373 392.643 35.6406 391.727L35.9903 391.271C36.6937 390.354 37.5141 389.534 38.4307 388.831L38.8865 388.481Z" fill="#255757"/>
<path d="M50.0835 387.515L50.3263 385.67L50.0835 387.515C51.0653 387.644 52.0259 387.901 52.9409 388.28L53.4716 388.5L54.1943 386.755L53.4716 388.5C54.3865 388.879 55.2478 389.376 56.0335 389.979L56.4892 390.329C57.2749 390.932 57.9781 391.635 58.581 392.421L58.9307 392.877L60.429 391.727L58.9307 392.877C59.5335 393.662 60.0308 394.523 60.4098 395.438L60.6296 395.969C61.0086 396.884 61.266 397.845 61.3953 398.827L61.4702 399.396L63.3427 399.15L61.4702 399.396C61.5995 400.378 61.5995 401.372 61.4702 402.354L63.3427 402.601L61.4702 402.354L61.3953 402.924C61.266 403.906 61.0086 404.866 60.6296 405.781L60.4098 406.312L62.1546 407.035L60.4098 406.312C60.0308 407.227 59.5335 408.088 58.9307 408.874L58.581 409.33C57.9781 410.115 57.2749 410.818 56.4892 411.421L56.0335 411.771L57.1832 413.269L56.0335 411.771C55.2478 412.374 54.3865 412.871 53.4716 413.25L54.1943 414.995L53.4716 413.25L52.9409 413.47C52.0259 413.849 51.0653 414.106 50.0835 414.236L49.5139 414.311L49.7604 416.183L49.5139 414.311C48.5321 414.44 47.5376 414.44 46.5557 414.311L46.3092 416.183L46.5557 414.311L45.9862 414.236C45.0044 414.106 44.0437 413.849 43.1288 413.47L42.598 413.25L41.8967 414.943L42.598 413.25C41.6831 412.871 40.8218 412.374 40.0362 411.771L39.5804 411.421L38.4307 412.92L39.5804 411.421C38.7948 410.818 38.0915 410.115 37.4887 409.33L37.139 408.874C36.5361 408.088 36.0388 407.227 35.6599 406.312L35.44 405.781C35.0611 404.866 34.8037 403.906 34.6744 402.924L34.5994 402.354C34.4702 401.372 34.4702 400.378 34.5994 399.396L34.6744 398.827C34.8037 397.845 35.0611 396.884 35.44 395.969L35.6599 395.438C36.0388 394.523 36.5361 393.662 37.139 392.877L37.4887 392.421C38.0915 391.635 38.7948 390.932 39.5804 390.329L40.0362 389.979C40.8218 389.376 41.6831 388.879 42.598 388.5L43.1288 388.28C44.0437 387.901 45.0044 387.644 45.9862 387.515L45.7411 385.653L45.9862 387.515L46.5557 387.44C47.5376 387.31 48.5321 387.31 49.5139 387.44L50.0835 387.515Z" stroke="#6BEFAA" stroke-width="3.77725"/>
</g>
<defs>
<filter id="filter0_d_160_8" x="442.269" y="30.4073" width="117.086" height="117.086" filterUnits="userSpaceOnUse" color-interpolation-filters="sRGB">
<feFlood flood-opacity="0" result="BackgroundImageFix"/>
<feColorMatrix in="SourceAlpha" type="matrix" values="0 0 0 0 0 0 0 0 0 0 0 0 0 0 0 0 0 0 127 0" result="hardAlpha"/>
<feOffset dy="3.77725"/>
<feGaussianBlur stdDeviation="8.97096"/>
<feComposite in2="hardAlpha" operator="out"/>
<feColorMatrix type="matrix" values="0 0 0 0 0.486275 0 0 0 0 0.870588 0 0 0 0 0.670588 0 0 0 0.5 0"/>
<feBlend mode="normal" in2="BackgroundImageFix" result="effect1_dropShadow_160_8"/>
<feBlend mode="normal" in="SourceGraphic" in2="effect1_dropShadow_160_8" result="shape"/>
</filter>
<filter id="filter1_d_160_8" x="14.6719" y="371.29" width="66.7258" height="66.7258" filterUnits="userSpaceOnUse" color-interpolation-filters="sRGB">
<feFlood flood-opacity="0" result="BackgroundImageFix"/>
<feColorMatrix in="SourceAlpha" type="matrix" values="0 0 0 0 0 0 0 0 0 0 0 0 0 0 0 0 0 0 127 0" result="hardAlpha"/>
<feOffset dy="3.77725"/>
<feGaussianBlur stdDeviation="8.97096"/>
<feComposite in2="hardAlpha" operator="out"/>
<feColorMatrix type="matrix" values="0 0 0 0 0.486275 0 0 0 0 0.870588 0 0 0 0 0.670588 0 0 0 0.5 0"/>
<feBlend mode="normal" in2="BackgroundImageFix" result="effect1_dropShadow_160_8"/>
<feBlend mode="normal" in="SourceGraphic" in2="effect1_dropShadow_160_8" result="shape"/>
</filter>
</defs>
</svg>
