<svg width="58" height="55" viewBox="0 0 58 55" fill="none" xmlns="http://www.w3.org/2000/svg">
<ellipse cx="28.5973" cy="27.5" rx="28.5973" ry="27.5" fill="#7CDEAB"/>
<path fill-rule="evenodd" clip-rule="evenodd" d="M34.2882 11.4131C34.3898 11.3113 34.5105 11.2305 34.6433 11.1753C34.7762 11.1202 34.9187 11.0918 35.0625 11.0918C35.2064 11.0918 35.3489 11.1202 35.4817 11.1753C35.6146 11.2305 35.7353 11.3113 35.8369 11.4131L44.5869 20.1631C44.6888 20.2647 44.7696 20.3854 44.8247 20.5183C44.8799 20.6512 44.9082 20.7936 44.9082 20.9375C44.9082 21.0814 44.8799 21.2238 44.8247 21.3567C44.7696 21.4896 44.6888 21.6103 44.5869 21.7119L40.4263 25.8725L38.6129 33.1197C38.4749 33.6715 38.196 34.178 37.8033 34.5895C37.4106 35.001 36.9176 35.3033 36.3729 35.4669L13.7432 42.2569L20.5332 19.625C20.6968 19.0809 20.999 18.5886 21.41 18.1963C21.8211 17.804 22.327 17.5252 22.8782 17.3872L30.1254 15.5759L34.2882 11.4131ZM30.3507 17.7744L23.4097 19.5091C23.2255 19.5551 23.0564 19.6482 22.9191 19.7794C22.7818 19.9106 22.681 20.0752 22.6266 20.2572L17.0047 38.9931L35.745 33.3713C35.9259 33.3164 36.0895 33.2157 36.2199 33.0788C36.3502 32.942 36.4429 32.7737 36.4888 32.5903L38.2257 25.6472L30.3507 17.7722V17.7744Z" fill="#002E2E"/>
<path fill-rule="evenodd" clip-rule="evenodd" d="M17.1951 38.9363L28.5001 29.6875C28.9327 29.6875 29.3557 29.5592 29.7154 29.3188C30.0751 29.0785 30.3555 28.7368 30.5211 28.3371C30.6866 27.9374 30.73 27.4976 30.6456 27.0732C30.5611 26.6489 30.3528 26.2591 30.0469 25.9532C29.741 25.6473 29.3512 25.4389 28.9268 25.3545C28.5025 25.2701 28.0627 25.3134 27.663 25.479C27.2633 25.6446 26.9216 25.925 26.6812 26.2847C26.4409 26.6444 26.3126 27.0674 26.3126 27.5L17.0638 38.805L17.007 38.9931L17.1951 38.9363V38.9363Z" fill="#002E2E"/>
</svg>
