<svg width="7" height="7" viewBox="0 0 7 7" fill="none" xmlns="http://www.w3.org/2000/svg">
<g clip-path="url(#clip0_319_44)">
<path d="M3.22846 1.94858L2.318 0.853981C2.21304 0.727843 2.02061 0.728404 1.89869 0.855663L1.14998 1.63688C0.927139 1.86925 0.863356 2.21431 0.992269 2.49097C1.76241 4.15178 3.04843 5.49308 4.64193 6.29753C4.90729 6.4318 5.23832 6.36537 5.46116 6.13299L6.21687 5.34449C6.33932 5.21695 6.33959 5.01541 6.21741 4.90609L5.16242 3.96286C5.05208 3.86419 4.88064 3.87709 4.77003 3.99257L4.40294 4.37547C4.38415 4.39599 4.35941 4.40951 4.33252 4.41397C4.30564 4.41842 4.27809 4.41356 4.25411 4.40014C3.65407 4.04025 3.15633 3.52116 2.81158 2.89573C2.79867 2.87072 2.79399 2.84198 2.79827 2.81393C2.80255 2.78588 2.81555 2.76006 2.83526 2.74044L3.20128 2.35895C3.31216 2.2429 3.32427 2.0635 3.22846 1.9483V1.94858Z" stroke="#6BEFAA" stroke-width="0.494027" stroke-linecap="round" stroke-linejoin="round"/>
</g>
<defs>
<clipPath id="clip0_319_44">
<rect width="6.4591" height="6.72736" fill="white" transform="translate(0.387939 0.199463)"/>
</clipPath>
</defs>
</svg>
