<svg width="58" height="72" viewBox="0 0 58 72" fill="none" xmlns="http://www.w3.org/2000/svg">
<path fill-rule="evenodd" clip-rule="evenodd" d="M12.4514 3.7006C11.4695 5.95048 10.9643 8.37937 10.9676 10.8342C10.9676 12.7261 11.7192 14.5406 13.057 15.8784C14.3948 17.2162 16.2092 17.9678 18.1012 17.9678H39.502C41.3939 17.9678 43.2084 17.2162 44.5462 15.8784C45.884 14.5406 46.6356 12.7261 46.6356 10.8342C46.6356 8.2982 46.1077 5.88348 45.1518 3.7006H50.2024C52.0943 3.7006 53.9088 4.45217 55.2466 5.78998C56.5844 7.12779 57.336 8.94224 57.336 10.8342V64.3361C57.336 66.2281 56.5844 68.0425 55.2466 69.3803C53.9088 70.7182 52.0943 71.4697 50.2024 71.4697H7.4008C5.50886 71.4697 3.6944 70.7182 2.35659 69.3803C1.01878 68.0425 0.267212 66.2281 0.267212 64.3361V10.8342C0.267212 8.94224 1.01878 7.12779 2.35659 5.78998C3.6944 4.45217 5.50886 3.7006 7.4008 3.7006H12.4514ZM28.8016 42.9354H18.1012C17.1552 42.9354 16.248 43.3111 15.5791 43.98C14.9102 44.649 14.5344 45.5562 14.5344 46.5022C14.5344 47.4481 14.9102 48.3554 15.5791 49.0243C16.248 49.6932 17.1552 50.0689 18.1012 50.0689H28.8016C29.7476 50.0689 30.6548 49.6932 31.3237 49.0243C31.9926 48.3554 32.3684 47.4481 32.3684 46.5022C32.3684 45.5562 31.9926 44.649 31.3237 43.98C30.6548 43.3111 29.7476 42.9354 28.8016 42.9354ZM39.502 28.6682H18.1012C17.1921 28.6692 16.3177 29.0173 15.6566 29.6414C14.9956 30.2654 14.5978 31.1184 14.5445 32.0259C14.4912 32.9335 14.7865 33.8271 15.37 34.5243C15.9535 35.2214 16.7811 35.6694 17.6839 35.7768L18.1012 35.8018H39.502C40.4479 35.8018 41.3552 35.426 42.0241 34.7571C42.693 34.0882 43.0688 33.1809 43.0688 32.235C43.0688 31.289 42.693 30.3818 42.0241 29.7129C41.3552 29.044 40.4479 28.6682 39.502 28.6682ZM28.8016 0.133801C30.3074 0.131582 31.7966 0.448277 33.1713 1.06305C34.5459 1.67781 35.7747 2.57672 36.7769 3.7006C38.3035 5.40553 39.288 7.5991 39.4699 10.021L39.502 10.8342H18.1012C18.1012 8.24826 19.0179 5.87634 20.5445 4.02874L20.8262 3.7006C22.788 1.51058 25.6343 0.133801 28.8016 0.133801Z" fill="white"/>
</svg>
