<svg width="72" height="68" viewBox="0 0 72 68" fill="none" xmlns="http://www.w3.org/2000/svg">
<path d="M36 0.696777C55.7908 0.696777 71.8334 15.6876 71.8334 34.1808C71.8334 52.6741 55.7908 67.6649 36 67.6649C16.2093 67.6649 0.166687 52.6741 0.166687 34.1808C0.166687 15.6876 16.2093 0.696777 36 0.696777ZM36 14.0904C35.0497 14.0904 34.1382 14.4432 33.4662 15.0711C32.7942 15.6991 32.4167 16.5508 32.4167 17.4388V34.1808C32.4169 35.0688 32.7946 35.9203 33.4666 36.5482L44.2166 46.5934C44.8924 47.2033 45.7976 47.5408 46.7371 47.5332C47.6767 47.5255 48.5754 47.1734 49.2398 46.5526C49.9042 45.9318 50.281 45.0919 50.2892 44.214C50.2973 43.3361 49.9362 42.4902 49.2834 41.8587L39.5834 32.7946V17.4388C39.5834 16.5508 39.2058 15.6991 38.5338 15.0711C37.8618 14.4432 36.9504 14.0904 36 14.0904Z" fill="white"/>
</svg>
