<svg width="44" height="44" viewBox="0 0 44 44" fill="none" xmlns="http://www.w3.org/2000/svg">
<rect width="44" height="44" rx="22" fill="#6BEFAA"/>
<path d="M17.9739 33.605C27.7309 33.605 33.0659 25.52 33.0659 18.513C33.0659 18.282 33.0659 18.051 33.0549 17.831C34.0889 17.083 34.9909 16.148 35.7059 15.081C34.7599 15.499 33.7369 15.785 32.6589 15.917C33.7589 15.257 34.5949 14.223 34.9909 12.98C33.9679 13.585 32.8349 14.025 31.6249 14.267C30.6569 13.233 29.2819 12.595 27.7529 12.595C24.8269 12.595 22.4509 14.971 22.4509 17.897C22.4509 18.315 22.4949 18.722 22.5939 19.107C18.1829 18.887 14.2779 16.775 11.6599 13.563C11.2089 14.344 10.9449 15.257 10.9449 16.225C10.9449 18.062 11.8799 19.69 13.3099 20.636C12.4409 20.614 11.6269 20.372 10.9119 19.976C10.9119 19.998 10.9119 20.02 10.9119 20.042C10.9119 22.616 12.7379 24.75 15.1689 25.245C14.7289 25.366 14.2559 25.432 13.7719 25.432C13.4309 25.432 13.1009 25.399 12.7709 25.333C13.4419 27.445 15.3999 28.974 17.7209 29.018C15.9059 30.437 13.6179 31.284 11.1319 31.284C10.7029 31.284 10.2849 31.262 9.86694 31.207C12.1879 32.725 14.9819 33.605 17.9739 33.605Z" fill="#002E2E"/>
</svg>
